<mxfile host="app.diagrams.net" modified="2023-12-27T11:00:08.030Z" agent="Mozilla/5.0 (Windows NT 10.0; Win64; x64) AppleWebKit/537.36 (KHTML, like Gecko) Chrome/120.0.0.0 Safari/537.36" version="22.1.12" etag="SWQps4cIXYbZ5K5HtdA8" type="github">
  <diagram name="ページ1" id="EZcLK18hInASVvrHGoVY">
    <mxGraphModel>
      <root>
        <mxCell id="0" />
        <mxCell id="1" parent="0" />
      </root>
    </mxGraphModel>
  </diagram>
</mxfile>
